<?xml version="1.0" encoding="UTF-8"?><svg id="a" xmlns="http://www.w3.org/2000/svg" width="595.28" height="841.89" viewBox="0 0 595.28 841.89"><g id="b"><path d="m390.09,221.68c-.82,3.81-1.22,8.1-1.5,12.81-.78,13.44,1.86,24.68,4.51,32.47,3.05,5.36,6.5,13.03,8.03,22.7,2.84,17.94-2.46,33.03-6.89,42.02-2.33,4.72-6.67,8.1-11.82,9.18s-11.25,1.65-18.46.63c-6.92-.98-12.57-3.19-16.75-5.33-3.62-1.85-6.56-4.79-8.38-8.43-4.42-8.87-10.82-27.98-.45-51.75,2.01-4.2,3.99-9.33,5.34-15.33,3.69-16.39.73-30.37-1.65-38.21,5.25,1.11,11.4,2,18.3,2.26,12.01.46,21.99-1.14,29.71-3.01Z" fill="#294036" stroke="#231f20" stroke-miterlimit="10"/></g><path d="m341.58,222.22s24.98-11.45,49.19-.65" fill="none" stroke="#034036" stroke-miterlimit="10"/><path d="m367.37,224.73s-3.13-90.5,4.49-91.98" fill="none" stroke="#034036" stroke-miterlimit="10"/><path d="m371.86,224.52s-2.75-83.94,3.18-88.38c0,0,1,5.3,7.97,5.59,0,0,.82,6.38,11.58,8.12,0,0,15.11,8.7,16.85,13.05,0,0,17.36-14.37,14.77-26.77,0,0-11.87-6.59-12.74-13.85,0,0,9,5.53,12.74,13.85" fill="none" stroke="#034036" stroke-miterlimit="10"/><path d="m375.04,224.26s15.15-27.19,26.04-26.98" fill="none" stroke="#034036" stroke-miterlimit="10"/><path d="m371.86,218.8s14.13-22.39,22.72-22.18c0,0-1.32-11.3,4.82-15.29,23.55-15.31,22.83,21.96,22.83,21.96-.42,7.51,3.98,11.33,3.98,11.33-4.89-2.54-14.32-2.09-16.78-1.93-.42.03-.85.02-1.27-.02-19.82-1.97-18.59-8.62-18.59-8.62" fill="none" stroke="#034036" stroke-miterlimit="10"/><path d="m394.58,196.62s12.84-.93,20.4,9.8" fill="none" stroke="#034036" stroke-miterlimit="10"/><path d="m427.09,137.5s16.59,3.99,9.3-14.22c0,0-11.68-16.5-24.72-13.14,0,0,5.97,9.46,21.38,9.85" fill="none" stroke="#034036" stroke-miterlimit="10"/><path d="m435.82,120.84s6.17-14.5-4.67-21.17c0,0-9-7.83-15.67-4.17,0,0,1.08,5.75,16.65,5.4" fill="none" stroke="#034036" stroke-miterlimit="10"/><path d="m434.17,100.86s7.1-5.85-3.17-16.03c0,0-9.77-8.02-16.95-4.34,0,0,5.54,6.03,16.65,4.1" fill="none" stroke="#034036" stroke-miterlimit="10"/><path d="m430.34,82.78s3.61-10.45-13.3-12.16c0,0-5.32-7.22-12.92,0,0,0-14.63-3.23-9.31,12.16,0,0,24.89,56.05,15.39,68.41" fill="none" stroke="#034036" stroke-miterlimit="10"/><path d="m375.1,135.79s-9.04-8.94-6.67-14.28c0,0,17.4-10.63,17.06-20.65,0,0-8.75.82-17.06,20.65" fill="none" stroke="#034036" stroke-miterlimit="10"/><path d="m368.43,121.51s-9.47-11.14-3.22-20.65c0,0,9.78-3.77,10.49-11.43,0,0-7.92,2.99-11.05,12.37" fill="none" stroke="#034036" stroke-miterlimit="10"/><path d="m364.44,99.91s-7.24-13.47,3.59-20.79c0,0,20.72-13.64,27.77,5.96" fill="none" stroke="#034036" stroke-miterlimit="10"/><path d="m382.11,89.35v5.18s5.28,1.72,7.56-5.1c0,0-.86-3.3-5.21-2.78-1.35.16-2.35,1.34-2.35,2.7Z" fill="none" stroke="#034036" stroke-miterlimit="10"/><path d="m403.67,91.92c3.54,1.15,9.06,2.05,11.15-2.5,0,0-5.37-5.58-11.69-1.16-1.41.98-1.1,3.13.53,3.66Z" fill="none" stroke="#034036" stroke-miterlimit="10"/><path d="m360.38,224.69s-5.01-45.53-11.54-48.8" fill="none" stroke="#034036" stroke-miterlimit="10"/><path d="m363.66,224.52s-4.25-49.32-12.35-51.12" fill="none" stroke="#034036" stroke-miterlimit="10"/><path d="m328.63,145.44s4.08,3.08,8.88,0c0,0,12.6-.77,9.76,8.99,0,0,16.28,9.71.42,22.43,0,0,.29,14.86-13.2,19.74,0,0-11.36,13.93-16.33,8.79,0,0-4.44,5.33-14.91,5.68,0,0-7.1,1.63-10.3,7.73,0,0-16.33-15.14-10.83-20.58,0,0-11.01-10.59-5.15-18.58,0,0-8.34-5.15-2.84-17.75,0,0,.53-24.85,13.67-20.77,0,0-.03-12.07,9.84-11.01,0,0,9.69-3.86,16.61-.07,0,0,1.42,6.28,9.41,6.99,0,0,6.21,1.02,4.97,8.41Z" fill="none" stroke="#034036" stroke-miterlimit="10"/><path d="m328.63,145.44s-32.98,43.04-32.98,61.98" fill="none" stroke="#034036" stroke-miterlimit="10"/><path d="m318.16,205.38s-3.22-35.09,2.08-28.71,0,16.97-2.08,28.71" fill="none" stroke="#034036" stroke-miterlimit="10"/><path d="m334.49,196.6s.23-26.19-4.57-26.73c0,0-5.17,1.78,4.29,16.44" fill="none" stroke="#034036" stroke-miterlimit="10"/><path d="m345.6,176.67s-14.34-12.87-11.11-15.15c0,0,11.32,5.13,11.11,15.15Z" fill="none" stroke="#034036" stroke-miterlimit="10"/><path d="m282.12,198.22s17.75-12.32,16.73-18.41c0,0-16.19,3.55-16.73,18.41Z" fill="none" stroke="#034036" stroke-miterlimit="10"/><path d="m276.97,179.64s21.74-19.94,27.22-13.3c0,0,6.79,3.99-27.22,13.3Z" fill="none" stroke="#034036" stroke-miterlimit="10"/><path d="m274.13,161.89s26.59-14.6,30.61-9.01c0,0-5.03,10.15-30.61,9.01Z" fill="none" stroke="#034036" stroke-miterlimit="10"/><path d="m287.8,141.12s20.71-2.21,21.47,3.12c0,0-9.66,5.44-21.47-3.12Z" fill="none" stroke="#034036" stroke-miterlimit="10"/><path d="m322.37,153.51s-2.29-9.78-10.61-6.47c0,0-1.44,7.61,10.61,6.47Z" fill="none" stroke="#034036" stroke-miterlimit="10"/></svg>