<?xml version="1.0" encoding="UTF-8"?><svg id="a" xmlns="http://www.w3.org/2000/svg" width="595.28" height="841.89" viewBox="0 0 595.28 841.89"><g id="b"><path d="m128.31,402.96c-2.39.18-2.08,1.83-2.03,3.5.07,2.13.94,4.03,1.58,5.98.87,2.67.03,4.99-1.08,7.24-1.38,2.8-3.29,5.3-5.22,7.75-1.69,2.15-2.92,4.5-2.96,7.25-.06,4.46,2.59,7.55,5.73,10.22,3.96,3.36,8.7,5.05,13.7,6.32,5.47,1.38,11.02,2.38,16.49,3.72,6.98,1.7,13.17,4.75,19.13,9.02,6.41,4.59,7.06,10.85,7.8,17.43.27,2.43.74,4.86,1.2,7.21,1.08,5.51,2.17,11.04,3.19,16.54,1.28,6.88,2.64,13.76,3.7,20.69.86,5.61,2.45,11.12,3.12,16.75.8,6.8,3.72,12.94,5.41,19.45.94,3.64-.33,6.86-.79,10.26-.38,2.84-1.23,5.57-1.41,8.48-.16,2.72.78,4.14,3.11,5" fill="none" stroke="#000" stroke-linecap="round" stroke-linejoin="round" stroke-width="2"/><path d="m423.76,284.35c-.19,1.89.7,3.54,1.26,5.24,1.96,5.87,3.21,11.88,4.3,17.97,2.35,13.19,1.41,26.48,1.27,39.72-.06,5.46-.61,11-1.29,16.49-.7,5.72-.81,11.51-1.6,17.22-1.51,10.9-2.22,21.97-5.92,32.48-.26.75.09,1.54.48,2.24" fill="none" stroke="#000" stroke-linecap="round" stroke-linejoin="round" stroke-width="2"/><path d="m422.51,269.86c.33-2.2,1.85-3.82,2.76-5.74,6.42-13.57,2.54-29.47-8.23-38.98-6.77-5.98-14.55-9.49-23.49-10.76-6-.85-12-.22-17.99-.44-4.74-.18-9.36-.68-13.75-2.72-3.83-1.78-6.98-4.47-10.2-7.06-4.03-3.25-8.21-6.21-13.01-8.2-1.14-.47-2.33-.42-3.49,0" fill="none" stroke="#000" stroke-linecap="round" stroke-linejoin="round" stroke-width="2"/><path d="m274.41,647.57c-6.05-9.23-11.75-18.68-18.95-27.12-6.29-7.38-13.51-13.43-22.51-17.2-13.93-5.83-28.41-3.57-39.26,7.94-6.02,6.38-9.38,13.97-11.08,22.3-.94,4.62-1.21,9.44-.86,14.21" fill="none" stroke="#000" stroke-linecap="round" stroke-linejoin="round" stroke-width="2"/><path d="m228.71,307.07c-2.33,6.71-1.14,13.65-1.12,20.48,0,3.71.46,7.51.93,11.23.74,5.84,1.3,11.69,2.28,17.51.73,4.31,1.68,8.6,2.2,12.95.34,2.86,1.02,5.69,1.72,8.49,1.69,6.76,3.4,13.51,5.25,20.23,1.46,5.28,3.14,10.5,4.73,15.74.03.1.23.17.23.25-.11,3.21,1.48,6,2.22,9,.26,1.07.35,2.22-.68,3.27-2.35,2.4-4.2,5.28-7.25,7-1.13.64-2.22,1.42-2.09,3.21.14,1.96,1.67,2.27,2.84,2.68,3.14,1.09,6.47.42,9.72.56" fill="none" stroke="#000" stroke-linecap="round" stroke-linejoin="round" stroke-width="2"/><path d="m482.2,445.17c-3.4-2.55-5.01-6.48-7.45-9.77-5.24-7.05-11.04-13.43-19.02-17.44-7.46-3.76-15.17-4.91-23.23-2.01-1.85.66-3.95,1.05-4.23,3.5-.32,2.79.36,5.07,2.95,6.79,2.95,1.96,6.28,2.86,9.54,3.91,8.67,2.78,17.42,5.35,25.95,8.57,5.21,1.96,9.84,4.99,14,8.7" fill="none" stroke="#000" stroke-linecap="round" stroke-linejoin="round" stroke-width="2"/><path d="m435,289.09c2.84.72,5.73,1.52,8.43,2.44,7.43,2.54,15.19,5.07,19.29,12.8,2.46,4.63,2.9,9.71,2.41,14.72-.77,7.91-1.62,15.8-.86,23.73.37,3.86.98,7.75,2.01,11.47,1.77,6.36,1.41,12.8,1.39,19.25,0,1.34-.52,2.85-1.07,3.94-1.51,2.95-1.28,5.91-.02,8.49,1.52,3.11,4.88,4.07,8.13,4.8,3.25.73,6.49,1.49,9.74,2.24" fill="none" stroke="#000" stroke-linecap="round" stroke-linejoin="round" stroke-width="2"/><path d="m415.27,449.91c-.55,2.49-.69,5.02-1.4,7.52-1.61,5.67-3.86,11.02-6.59,16.2-2.25,4.27-5.32,8-8.05,11.95-.9,1.31-1.69,2.67-2.4,4.05-1.63,3.14-.98,6.11.94,8.99,1.65,2.48,5.14,2.98,7.49.95,3.35-2.9,5.02-6.91,6.51-10.96,2.31-6.31,4.35-12.69,4.78-19.47.05-.78.23-1.61,1.11-2" fill="none" stroke="#000" stroke-linecap="round" stroke-linejoin="round" stroke-width="2"/><path d="m344.59,208.68c3.27,1.37,5.91,3.72,8.73,5.76,3.91,2.83,7.95,5.47,11.79,8.43,3.56,2.74,5.05,6.21,4.96,10.54-.08,3.58-.24,7.16-.23,10.74.03,7.41.07,14.82.25,22.22.22,8.56-2.45,16.1-7.8,22.7-1.29,1.59-3.02,2.81-4.45,4.28-1.38,1.42-2.71,2.87-3.98,4.4-2.18,2.65-4.92,4.85-8.77,4.57-.52-.04-.86.32-1.26.46-3.15,1.05-6.41,1.48-9.72,1.54" fill="none" stroke="#000" stroke-linecap="round" stroke-linejoin="round" stroke-width="2"/><path d="m377.56,287.84c2.23-2.96,2.68-6.65,3.61-10.03,1.26-4.62,2.28-9.37,2.64-14.2.25-3.42,1.12-6.77,1.02-10.24-.08-2.64-.65-4.96-2.98-6.58-2.81,1.59-3.3,4.54-3.95,7.1-1.92,7.46-2.04,15.06-1.13,22.71.3,2.54-.22,5.19.11,7.73.63,4.83-1.08,9.08-2.43,13.53-.64,2.09-.23,4.56-1.15,6.69-.66,1.53-.32,3.59-2.22,4.51" fill="none" stroke="#000" stroke-linecap="round" stroke-linejoin="round" stroke-width="2"/><path d="m281.65,400.72c2.62,2.19,3.57,5.47,5.19,8.27,5.82,10.06,12.13,19.79,19.31,28.91,7.77,9.88,16.11,19.28,25.46,27.73,3.81,3.44,7.49,7.05,11.72,10" fill="none" stroke="#000" stroke-linecap="round" stroke-linejoin="round" stroke-width="2"/><path d="m256.43,313.31c.58,4.25,1.06,8.51,1.77,12.73,1.4,8.23,2.94,16.41,5.08,24.51,2.08,7.84,5.07,15.4,6.98,23.22,2.2,9.04,7.13,16.81,10.26,25.36,1.6,4.38,3.36,8.63,5.36,12.82,4.47,9.37,9.42,18.48,15.05,27.18,3.52,5.45,7.46,10.62,11.38,15.81,3.23,4.26,6.55,8.51,8.8,13.44" fill="none" stroke="#000" stroke-linecap="round" stroke-linejoin="round" stroke-width="2"/><path d="m443.49,291.09c-.18-1.95-1.7-3.12-2.79-4.46-3.57-4.39-7.26-8.69-11.46-12.51-2.04-1.86-4.44-3.19-7-4.28-2.58,3.18-5.04,6.45-7.78,9.47-1.03,1.13-.52,2.29-.6,3.3-.53,7.3-3.03,13.96-6.1,20.47-2.89,6.14-6.9,11.51-11.47,16.5-6.29,6.85-13.76,11.98-22.23,15.74-2.14.95-4.1.88-6-.51" fill="none" stroke="#000" stroke-linecap="round" stroke-linejoin="round" stroke-width="2"/><path d="m299.89,554.55c-2-1.17-3.87-2.86-6.02-3.37-2.93-.68-5.32-2.5-8.21-3.14-4.64-1.02-9.23-1.12-14-.59-6.69.74-12.62,3.1-18.21,6.61-5.26,3.3-9.88,7.35-13.74,12.23-2.8,3.54-5.46,7.18-7.71,11.32,2.93,1.22,5.89.66,8.71.82,5.39.3,10.82.08,16.23.1,1.08,0,2.11-.06,2.99-.77.04-.03.03-.18,0-.24-.06-.1-.16-.17-.24-.25" fill="none" stroke="#000" stroke-linecap="round" stroke-linejoin="round" stroke-width="2"/><path d="m370.32,312.81c-1.44,7.17-2.21,14.39-2.7,21.71-.31,4.57-.84,9.16-.76,13.75.11,6.19.71,12.36,1.69,18.48.76,4.73,1.36,9.49,2.02,14.23.63,4.57,1.13,9.21,1.96,13.7,1.06,5.74,2.44,11.45,2.96,17.28.31,3.39,1.95,6.74.57,10.23,1.43,2.48,1.16,5.39,2.28,8.08,1.81,4.36,2.36,9.29,2.21,14.14" fill="none" stroke="#000" stroke-linecap="round" stroke-linejoin="round" stroke-width="2"/><path d="m285.15,496.86c.03,3.78,1.28,7.35,2.07,10.97,1.76,8.04,3.77,16.04,5.97,23.98,1.84,6.62,3.41,13.33,5.98,19.73.32.79.08,1.52.22,2.26" fill="none" stroke="#000" stroke-linecap="round" stroke-linejoin="round" stroke-width="2"/><path d="m247.69,424.44c1.96,2.02,2.32,4.76,3.23,7.25,2.55,6.97,4.96,14,7.52,20.97,2.71,7.37,6,14.52,8.51,21.97.64,1.9,2.19,3.52,1.72,5.75" fill="none" stroke="#000" stroke-linecap="round" stroke-linejoin="round" stroke-width="2"/><path d="m262.17,247.89c-.17,8.14-2.46,15.35-8.72,21-2.95,2.66-5.34,5.78-6.55,9.7-.83,2.7-.49,3.93,2.29,4.45,4.54.85,8.64,2.91,12.95,4.38,5.19,1.76,10.03,4.8,15.31,5.95,4.44.97,8.2,3.28,12.44,4.46,4.28,1.18,6.98,4.46,9.63,7.59.92,1.08,2.14,1.9,2.85,3.16" fill="none" stroke="#000" stroke-linecap="round" stroke-linejoin="round" stroke-width="2"/><path d="m222.21,578.02c2.04,1.48.86,3.4.16,4.69-1.68,3.11-4.31,5.41-7.36,7.35-3.95,2.52-8.41,4.01-12.3,6.65-4.63,3.14-8.2,7.27-11.73,11.51-2.57,3.09-5.32,6.02-7.76,9.23-.78,1.02-1.65,2.21-3.21,2.28" fill="none" stroke="#000" stroke-linecap="round" stroke-linejoin="round" stroke-width="2"/><path d="m486.95,394.47c7.95,4.42,12.97,11.02,14.72,19.98,2.07,10.58-1.43,19.54-8.58,27.13-1.64,1.74-3.85,3.44-6.41,4.04-.93.22-1.99.77-2.99.05" fill="none" stroke="#000" stroke-linecap="round" stroke-linejoin="round" stroke-width="2"/><path d="m314.87,204.18c-4.7-4.13-8.29-4.11-12.97.27-2.84,2.65-5.59,5.4-8.24,8.24-4.29,4.59-9.79,7.66-14.51,11.71-3.81,3.26-6.96,6.97-8.78,11.73-.33.87.14,1.36.29,2.01" fill="none" stroke="#000" stroke-linecap="round" stroke-linejoin="round" stroke-width="2"/><path d="m480.95,449.16c-1.13,2.02-1.28,4.33-1.68,6.51-1.03,5.6-3.19,10.6-6.83,14.96-.33.4-.8.93-1.24.96-1.16.08-1.83.81-2.48,1.56-3.83,4.4-9.17,6.56-13.99,9.49-7.27,4.42-15.1,7.64-22.99,10.7-1.66.64-3.33,1.36-5.23,1.31-2.93-.08-5.64-2.59-5.74-5.52-.22-6.46-.81-12.9-2.09-19.21-.77-3.83-1.07-7.66-1.41-11.51" fill="none" stroke="#000" stroke-linecap="round" stroke-linejoin="round" stroke-width="2"/><path d="m465.22,382.24c-1.6,1.26-2.58,3.07-3.92,4.56-3.16,3.52-7.43,4.53-11.57,5.91-5.73,1.91-10.66,5.06-14.99,9.24-3.89,3.75-7.18,7.99-10.59,12.16-1.78,2.18-3.18,4.48-4.73,6.77-1.42,2.09-1,4.48-2.08,6.6-3.03,5.93-5.75,12.02-10.06,17.19-.74.89-1.35,1.79-.75,3" fill="none" stroke="#000" stroke-linecap="round" stroke-linejoin="round" stroke-width="2"/><path d="m418.02,423.44c-2.72,1.18-3.77,3.96-5.42,6.05-9.55,12.13-20.36,23.04-31.41,33.79-4.52,4.4-9.7,7.64-14.6,11.37-.5.38-1,.92-1.23,1.49-.95,2.3-2.67,2.55-4.77,1.99" fill="none" stroke="#000" stroke-linecap="round" stroke-linejoin="round" stroke-width="2"/><path d="m453.23,464.65c.21-1.41-.83-2.23-1.49-3.25-5.87-9.17-14.42-14.75-24.78-17.03-4.85-1.07-10.19-.61-15.18.85-.37.11-.92.55-.76,1.21" fill="none" stroke="#000" stroke-linecap="round" stroke-linejoin="round" stroke-width="2"/><path d="m376.81,428.94c-.97,2.24-.76,4.67-.95,7-.52,6.62-1.77,13.06-3.44,19.5-1.47,5.65-3.14,11.17-5.56,16.47-.31.69-.04,1.65-.04,2.48" fill="none" stroke="#000" stroke-linecap="round" stroke-linejoin="round" stroke-width="2"/><path d="m413.52,280.6c-3.58,3.08-7.15,6.17-10.74,9.24-7.31,6.26-14.45,12.73-21.97,18.74-2.05,1.64-4.24,2.92-6.74,3.76-1.83.61-3.53.44-5.25-.27-2.08-.87-2.42-1.49-.94-3.2,1.43-1.66,2.08-3.51,2.85-5.48.56-1.42,1.35-3.26,3.09-4.06" fill="none" stroke="#000" stroke-linecap="round" stroke-linejoin="round" stroke-width="2"/><path d="m283.9,584.76c7.28,3.22,14.32,6.87,20.46,12.01,6.42,5.37,11.79,11.59,15.03,19.45.41.99,1.14,1.84,1.72,2.76" fill="none" stroke="#000" stroke-linecap="round" stroke-linejoin="round" stroke-width="2"/><path d="m379.81,465.65c2.79-.11,5.26-1.01,7.5-2.73,5.59-4.29,11.18-8.59,16.47-13.25,2.43-2.15,5.44-2.72,8.5-2.96,2.4-.19,4.86-.31,7.23.02,5.09.7,9.78,2.61,14.26,5.17,6.01,3.43,11.27,7.91,16.93,11.82,1.58,1.09,3.74,1.18,4.86,3.14.5.87,1.35,1.61,1.99,2.49,2.09,2.89,4.9,4.53,8.68,3.82.47-.09.99.14,1.49.23" fill="none" stroke="#000" stroke-linecap="round" stroke-linejoin="round" stroke-width="2"/><path d="m323.36,607.24c1.6,2.88,2.05,6.15,2.95,9.25,1.65,5.7,3.42,11.41,4.41,17.24.72,4.23,1.86,8.41,2.14,12.71.03.49-.44,1.39.74,1.25" fill="none" stroke="#000" stroke-linecap="round" stroke-linejoin="round" stroke-width="2"/><path d="m224.46,492.12c.39,7.14,1.39,14.12,4.99,20.48.13.22.12.53.26.74,2.14,3.13,2.83,2.94,4.78-.47,1.91-3.33,2.89-6.98,4.23-10.5.32-.84.17-1.51-.03-2.26" fill="none" stroke="#000" stroke-linecap="round" stroke-linejoin="round" stroke-width="2"/><path d="m179.51,356.27c-5.73,2.8-12.11,3.61-17.99,5.97-5.32,2.13-9.67,5.23-11.15,11.03-.6,2.35-1.28,5.11,1.42,6.97" fill="none" stroke="#000" stroke-linecap="round" stroke-linejoin="round" stroke-width="2"/><path d="m322.61,195.69c-.81,1.97-.71,3.86-.35,6.01,1.61,9.59,5.48,18.28,10.1,26.7.47.85.14,1.67.23,2.51" fill="none" stroke="#000" stroke-linecap="round" stroke-linejoin="round" stroke-width="2"/><path d="m257.18,263.87c-.56-.27-.95-.23-1.52.22-3.78,2.97-7.76,5.71-11.44,8.8-10.6,8.92-14.25,12.66-21.54,23.92-.89,1.37-1.6,2.8-2.18,4.28-1.19,3-.42,4.57,2.96,5.25.27.05.5.32.75.48" fill="none" stroke="#000" stroke-linecap="round" stroke-linejoin="round" stroke-width="2"/><path d="m232.95,574.78c-4.03.08-7.91.53-11.54,2.67-1.37.81-3.3.46-4.96,1.03-5.49,1.89-10.83,4.27-15.88,6.96-6.59,3.51-11.46,9.05-13.59,16.56-1.4,4.95-3.63,9.57-5.73,14.24-5.38,11.95-14.58,21.03-22.97,30.72-.42.48-.78.95-1.51.74" fill="none" stroke="#000" stroke-linecap="round" stroke-linejoin="round" stroke-width="2"/><path d="m493.69,442.17c.41.34.82.68,1.35,1.12-8.48,10.13-15.71,21.09-21.18,33.31,9.26.97,15.85-10,12.33-19.94" fill="none" stroke="#000" stroke-linecap="round" stroke-linejoin="round" stroke-width="2"/><path d="m249.19,308.07c-4.86,6.74-3.22,13.78-.7,20.71,2.14,5.88,4.67,11.62,7.43,17.25.26.54.35,1.16.51,1.74" fill="none" stroke="#000" stroke-linecap="round" stroke-linejoin="round" stroke-width="2"/><path d="m246.69,426.69c1.57,4.04,2.34,8.28,3.28,12.48.48,2.12,1.77,4.15,1.87,6.25.2,4.43,2.57,8.11,3.74,12.19,1.19,4.18,3.29,8.16,5.42,11.99,2.12,3.8,4.03,7.76,7.35,10.85,1.66,1.55,2.66,3.87,3.8,5.93,1.71,3.1,3.73,5.8,7.26,6.99,1.16.39,1.89,1.44,2.96,2.06,3.41,1.95,6.58.29,9.77-.39,2.24-.48,4.34-1.6,6.51-2.43" fill="none" stroke="#000" stroke-linecap="round" stroke-linejoin="round" stroke-width="2"/><path d="m291.39,552.55c-.42,1.83,1.18,2.64,2.04,3.71,3.38,4.24,7.8,7.54,10.95,12.01,3.04,4.31,4.57,9.21,6.09,14.21,1.45,4.77,3.72,9.32,7.89,12.52" fill="none" stroke="#000" stroke-linecap="round" stroke-linejoin="round" stroke-width="2"/><path d="m307.38,268.61c.6,1.21.28,2.5.23,3.74-.12,2.92.88,5.7,1.9,8.19,3.99,9.81,10.61,17.34,20.6,21.53,1,.42,2,.83,3,1.25" fill="none" stroke="#000" stroke-linecap="round" stroke-linejoin="round" stroke-width="2"/><path d="m384.3,465.15c-2.2,3.62-5.71,5.81-9,8.23-2.44,1.79-5.34,2.93-7.04,5.72-.75,1.22-1.44,2.4-1.41,3.78.16,7.06,1.31,13.86,5.18,20,1.83,2.9,4.66,4.15,7.53,5.47" fill="none" stroke="#000" stroke-linecap="round" stroke-linejoin="round" stroke-width="2"/><path d="m242.94,455.66c2.73,1.55,3.09,4.51,3.37,7.01.5,4.55.36,9.16-1.83,13.49-1.82,3.61-4.17,6.58-7.78,8.47" fill="none" stroke="#000" stroke-linecap="round" stroke-linejoin="round" stroke-width="2"/><path d="m339.1,203.44c-.25.08-.62.32-.73.23-3.19-2.5-6.88-4.32-9.96-7.16,1.48-1.1,3-.88,4.44-.76.64.06,1.22.47,1.85,1.1,3.22,3.22,5.73,7.08,8.19,10.72,4.22,6.24,6.82,13.46,4.91,21.33-.97,4-5.18,6.95-9.2,6.7-.86-.05-1.92-.58-2.46-1.23-2.45-2.96-5.9-4.61-8.87-6.84-5.47-4.11-8.21-9.65-10.14-15.85-.53-1.71-.85-3.49-1.27-5.24-.84-3.55-.32-7.16-.5-10.74" fill="none" stroke="#000" stroke-linecap="round" stroke-linejoin="round" stroke-width="2"/><path d="m202.98,328.3c-3.1.67-3.7,3.58-4.95,5.77-2.79,4.91-5.23,10-8.76,14.48-1.87,2.37-4.4,3.93-6.57,5.92-.45.41-1.45.21-2.2.3" fill="none" stroke="#000" stroke-linecap="round" stroke-linejoin="round" stroke-width="2"/><path d="m333.6,303.57c.77,2.1-1.33,1.78-2.01,1.91-7.84,1.5-15.72,2.71-23.71,3.05-1.5.06-3.03-.34-4.49.28" fill="none" stroke="#000" stroke-linecap="round" stroke-linejoin="round" stroke-width="2"/><path d="m141.54,398.97c.92-4.81.76-9.46-2.03-13.82-1.85.88-3.95,1.52-2.97,4.33-2.05,3.24-.78,6.7-.38,9.97.29,2.32,1.72,4.51,2.61,6.76.09.22.01.49.01.74-3.29,2.98-9.81.91-10.28-4.47,4.41.36,8.45,2.35,12.78,2.47" fill="none" stroke="#000" stroke-linecap="round" stroke-linejoin="round" stroke-width="2"/><path d="m325.86,301.33c-5.67,1.41-11.41,1.94-17.23,1.24-4.04-.49-8.07-1.06-11.99-2.22-.21-.06-.49.15-.74.23" fill="none" stroke="#000" stroke-linecap="round" stroke-linejoin="round" stroke-width="2"/><path d="m359.58,279.85c1.96-2.45,1.57-5.54,1.6-8.24.05-4.67-1.04-9.22-4.29-13.03-1.53-1.8-3.37-3.03-5.32-4.16-.85-.49-1.97-.72-2.97-.04" fill="none" stroke="#000" stroke-linecap="round" stroke-linejoin="round" stroke-width="2"/><path d="m326.61,299.83c.28-2.54-1.72-4.12-2.83-5.94-4.21-6.87-8.74-13.54-13.16-20.28-.69-1.05-1.32-2.15-2.5-2.75" fill="none" stroke="#000" stroke-linecap="round" stroke-linejoin="round" stroke-width="2"/><path d="m338.1,235.9c3.49,4.77,5.64,10.24,8.27,15.47,4.31,8.59,6.7,17.98,11.16,26.51.38.73.87,1.32,1.27,1.99.72,1.24,1.12,2.45.34,4.01-1.05,2.11-1.23,4.57-2.29,6.72-.51,1.04-.02,2.04.48,2.99" fill="none" stroke="#000" stroke-linecap="round" stroke-linejoin="round" stroke-width="2"/><path d="m244.69,418.7c-1.63,1.27-1.71,3.39-2.68,5.03-.98,1.68-1.94,3.32-3.31,4.71-4.54,4.61-6.98,10.3-8.51,16.47-.13.53-.48,1-.73,1.5" fill="none" stroke="#000" stroke-linecap="round" stroke-linejoin="round" stroke-width="2"/><path d="m355.08,475.14c-2.24,3.95-6.09,5.95-10.03,7.38-3.55,1.29-7.36,2.18-11.2,2.31-2.33.08-4.69-.61-6.99.3" fill="none" stroke="#000" stroke-linecap="round" stroke-linejoin="round" stroke-width="2"/><path d="m372.06,394.72c-2.27,1.51-2.2,4.04-2.44,6.25-.76,7.09,1.93,13.43,4.72,19.71.26.59.9,1.08,1.72,1.01" fill="none" stroke="#000" stroke-linecap="round" stroke-linejoin="round" stroke-width="2"/><path d="m196.24,364.01c-3.96-.48-7.85-.17-11.75.68-1.24.27-2.55-.68-3.98-.74-4.65-.18-7.7,1.75-9.53,6.04-1.57,3.7-3.64,7.18-4.96,11" fill="none" stroke="#000" stroke-linecap="round" stroke-linejoin="round" stroke-width="2"/><path d="m310.38,584.26c-1.98.54-4,.2-5.99.23-6.35.09-12.71.24-18.97-1.03-.66-.13-1.19-.17-1.75.07-.13.06-.2.31-.24.49-.01.06.15.16.23.25" fill="none" stroke="#000" stroke-linecap="round" stroke-linejoin="round" stroke-width="2"/><path d="m267.67,241.39c-1.05.27-1.89.91-2.48,1.76-3.29,4.73-7.88,8.31-11.28,12.96-3.97,5.43-8.21,10.66-11.97,16.25" fill="none" stroke="#000" stroke-linecap="round" stroke-linejoin="round" stroke-width="2"/><path d="m282.15,311.32c-2.59-1.08-5.62-.82-7.97-2.52-1.64-1.19-3.9-1.17-4.9-.33-2.16,1.83-4.77,2.03-7.14,2.75-4.88,1.47-9.73,3.13-14.95,3.44-3.09.18-5.63-.71-7.97-2.37-1.57-1.12-3.23-2.3-4.01-4.21-.51-1.25-1.58-.83-2.5-1.02-3.61-.73-6.76-.66-9.84,2.16-2.66,2.43-6.19,3.9-9.17,6.07-2.27,1.65-4.29,3.53-6.21,5.53-1.89,1.96-2.08,3.04-.21,4.94,1.73,1.75,1.85,4.18,3.16,6.07.17.24-.13.81-.22,1.22" fill="none" stroke="#000" stroke-linecap="round" stroke-linejoin="round" stroke-width="2"/><path d="m260.18,578.02c5.15.23,10.09,1.54,14.98,3.01,2.77.83,5.5,1.82,8.25,2.73" fill="none" stroke="#000" stroke-linecap="round" stroke-linejoin="round" stroke-width="2"/><path d="m234.7,473.39c.55-3.17,1.91-6.19,1.74-9.49-.13-2.69-.88-5.09-2.97-7.02-1.4-1.3-3.02-2-4.76-1.64-1.57.33-3.4.61-3.86,2.9-.19.94-1.25,2.01-2.18,2.46-3.72,1.76-4.34,4.91-4.51,8.55-.25,5.35,2.5,9.02,6.26,12.26.5.43.98.38,1.51.5,1.85.42,1.87,1.44.75,2.72" fill="none" stroke="#000" stroke-linecap="round" stroke-linejoin="round" stroke-width="2"/><path d="m290.65,550.8c-.06,2.07,2.06,1.76,3.05,2.69,6.31,5.94,12.77,11.71,19.18,17.54" fill="none" stroke="#000" stroke-linecap="round" stroke-linejoin="round" stroke-width="2"/><path d="m272.91,237.4c-1.69.36-3.04,1.3-4.25,2.49-.51.5-.97,1.29-.69,1.72,1.15,1.75.17,3.51-.17,5-1.04,4.6-2.13,9.27-5.36,13.03-.84.98-1.4,2.23-3.02,1.98" fill="none" stroke="#000" stroke-linecap="round" stroke-linejoin="round" stroke-width="2"/><path d="m323.11,606.74c-1.19.75-1.24.75-1.24,1.75-.04,8-.25,16,.69,23.98.28,2.37.27,4.83-.19,7.24" fill="none" stroke="#000" stroke-linecap="round" stroke-linejoin="round" stroke-width="2"/><path d="m325.86,484.13c1.19,3.2.86,6.36-.26,9.49-.15.42-.39.8-.75,1.53-2.75-3.05-6.19-5.46-7.73-9.51" fill="none" stroke="#000" stroke-linecap="round" stroke-linejoin="round" stroke-width="2"/><path d="m414.52,451.41c-2.66,1.58-5.21,3.44-8.03,4.66-2.61,1.13-5.2,2.46-8.2,2.65-1.46.09-2.09-.19-2.25-1.57" fill="none" stroke="#000" stroke-linecap="round" stroke-linejoin="round" stroke-width="2"/><path d="m183.25,365.26c-2.69,1.26-4.6,3.35-6.25,5.74-2.33,3.37-4.71,6.81-8.28,8.92-2.71,1.6-5.29,3.33-7.67,5.35-1.57,1.34-2.94.95-4.54.24-1.52-.68-2.44-2.13-3.95-2.85-.5-.24-.97-1.73-.7-2.11.7-.96.31-2.24,1.16-3.06" fill="none" stroke="#000" stroke-linecap="round" stroke-linejoin="round" stroke-width="2"/><path d="m261.67,358.51c1.92,5.22,4.29,10.25,6.82,15.19.48.94-.15,2.89,1.92,2.79" fill="none" stroke="#000" stroke-linecap="round" stroke-linejoin="round" stroke-width="2"/><path d="m286.9,297.08c-2.08,4.03-1.54,5.67,2.76,7.2,2.67.95,5.51,1.45,8.21,2.34.86.28,1.37-.03,2.01-.3" fill="none" stroke="#000" stroke-linecap="round" stroke-linejoin="round" stroke-width="2"/><path d="m303.88,484.13c-1.78,1.1-3.84.27-5.77.92-4.5,1.52-8.53,3.94-12.71,6.07" fill="none" stroke="#000" stroke-linecap="round" stroke-linejoin="round" stroke-width="2"/><path d="m286.15,312.31c1.82-1.52,4.21-1.19,6.27-1.6,3.54-.7,7.15-1.17,10.83-1.98.27,1.37,1.63,2.28,1.34,3.83-5.43.82-10.96.78-16.45,1.25-.58.05-1.07-.13-1.5-.5" fill="none" stroke="#000" stroke-linecap="round" stroke-linejoin="round" stroke-width="2"/><path d="m259.18,577.02c-4.38-1.45-8.93-2.02-13.49-2.49-1.33-.14-2.66-.17-4-.26" fill="none" stroke="#000" stroke-linecap="round" stroke-linejoin="round" stroke-width="2"/><path d="m216.72,474.39c.7,1.51.54,3.16.79,4.74.75,4.79,1.89,9.43,6.45,12.26.33.2.53.5,1.01.5,3.69.04,4.26,2.5,4.28,5.48,0,.75.27,1.66.75,2.22,1.14,1.32,2.33,2.9,4.45,2.26,2.38-.71,4.93-1.52,5.21-4.48.4-4.31.25-8.58-3.45-11.73" fill="none" stroke="#000" stroke-linecap="round" stroke-linejoin="round" stroke-width="2"/><path d="m343.09,478.13c-5.51,1.03-10.88,2.63-16.2,4.35-1.49.48-2.87,1.32-4.5,1.74-3.32.86-6.52,1.23-9.76-.09" fill="none" stroke="#000" stroke-linecap="round" stroke-linejoin="round" stroke-width="2"/><path d="m232.2,489.62c1.61.84,3.37,1.48,4.48,3.01.96,1.32,1.29,2.86.23,4.21-1.1,1.4-2.47,2.15-4.49,1.36-1.02-.39-1.69-1.57-2.96-1.34" fill="none" stroke="#000" stroke-linecap="round" stroke-linejoin="round" stroke-width="2"/><path d="m363.07,288.84c4.54.91,6.5,3.39,6.72,8.74.07,1.7.24,3.34,1.02,4.87" fill="none" stroke="#000" stroke-linecap="round" stroke-linejoin="round" stroke-width="2"/><path d="m231.45,450.16c1.88,2.39,4.13,3.51,7.25,2.53,1.78-.55,3.91.88,3.94,2.71.07,5.35.45,10.75-1.2,15.98" fill="none" stroke="#000" stroke-linecap="round" stroke-linejoin="round" stroke-width="2"/><path d="m218.97,343.03c1.38-1.46-.14-2.62-.57-3.72-1.77-4.54-4.72-8.19-8.92-10.76" fill="none" stroke="#000" stroke-linecap="round" stroke-linejoin="round" stroke-width="2"/><path d="m220.47,463.4c.33,1.42.83,2.81.97,4.25.31,3.38,2.14,6.01,4.63,7.86,1.33.99,1.49,1.58,1.17,2.88-.26,1.06-.35,2.16-.52,3.24" fill="none" stroke="#000" stroke-linecap="round" stroke-linejoin="round" stroke-width="2"/><path d="m311.87,584.76c1.63-.62,3.52-.11,5.02-1.47,2.04-1.84,2.71-4.25,1.18-6.5-1.32-1.94-2.69-3.92-4.71-5.27" fill="none" stroke="#000" stroke-linecap="round" stroke-linejoin="round" stroke-width="2"/><path d="m241.19,471.89c-.82,5.65-4.61,8.68-9.49,10.74" fill="none" stroke="#000" stroke-linecap="round" stroke-linejoin="round" stroke-width="2"/><path d="m216.47,342.78c-1.32.62-2.13-.25-3-1-2.58-2.21-5.61-3.73-8.49-5.49-1.09-.67-2.24-.61-2.44.75-.43,2.83-2.2,4.84-3.8,6.98" fill="none" stroke="#000" stroke-linecap="round" stroke-linejoin="round" stroke-width="2"/><path d="m268.17,307.82c-4.23-.83-8.5-.18-12.73-.36-5.41-.22-10.84.25-16.24-.36-1.3-.15-2.68-.27-3.99.21" fill="none" stroke="#000" stroke-linecap="round" stroke-linejoin="round" stroke-width="2"/><path d="m311.37,485.87c-4.5,1.4-8.25,4.3-12.49,6.24" fill="none" stroke="#000" stroke-linecap="round" stroke-linejoin="round" stroke-width="2"/><path d="m420.76,490.87c-1.13,3.17-3.16,4.98-6.74,5.09-1.18.04-2.61.84-3,2.4" fill="none" stroke="#000" stroke-linecap="round" stroke-linejoin="round" stroke-width="2"/><path d="m238.95,452.41c-.81-2.21-3.93-3.85-6.71-2.89-1.83.63-2.08-.02-2.27-1.35-.24-1.66-1.39-2.71-2.52-3.73-1.24-1.1-1.74-.77-2.26.97-.69,2.27.4,4.33.53,6.5" fill="none" stroke="#000" stroke-linecap="round" stroke-linejoin="round" stroke-width="2"/><path d="m152.03,383.24c-2.02,1.52-4.34.69-6.49.67-1.89-.02-3.74-.45-5.5.58" fill="none" stroke="#000" stroke-linecap="round" stroke-linejoin="round" stroke-width="2"/><path d="m224.96,458.9c.83.25,1.65.58,2.5.73,2.98.54,4.93,2.58,4.68,5.5-.19,2.22-.11,4.54-1.19,6.62" fill="none" stroke="#000" stroke-linecap="round" stroke-linejoin="round" stroke-width="2"/><path d="m457.48,468.14c3.83,1.17,7.66,2.33,11.49,3.5" fill="none" stroke="#000" stroke-linecap="round" stroke-linejoin="round" stroke-width="2"/><path d="m177.01,639.45c-2.25,2.58-4.55,5.12-6.71,7.76-.81,1-1.72.16-2.53.48" fill="none" stroke="#000" stroke-linecap="round" stroke-linejoin="round" stroke-width="2"/><path d="m315.62,584.51c-.08,2.25,1.49,3.94,1.99,5.99,1.32,5.42,4.06,10.41,4.88,15.98" fill="none" stroke="#000" stroke-linecap="round" stroke-linejoin="round" stroke-width="2"/><path d="m241.44,482.38c.42,3.65-.14,7.21-1,10.74" fill="none" stroke="#000" stroke-linecap="round" stroke-linejoin="round" stroke-width="2"/><path d="m406.03,504.35c-3.37,1.85-7,2.96-10.74,3.75" fill="none" stroke="#000" stroke-linecap="round" stroke-linejoin="round" stroke-width="2"/><path d="m491.44,442.42c-3.19-2.14-7.6-.92-8.99,2.5-.26.63-.34,1.36-1,1.75-1.09.64-.54,2.01-.21,2.16,2.31,1.12,2.82,3.56,4.21,5.33" fill="none" stroke="#000" stroke-linecap="round" stroke-linejoin="round" stroke-width="2"/><path d="m226.21,459.65c.8,3.44,1.53,6.91,2.75,10.24" fill="none" stroke="#000" stroke-linecap="round" stroke-linejoin="round" stroke-width="2"/><path d="m354.08,296.83c-.98-.21-1.86-.03-2.76.48-1.82,1.02-3.33,2.57-5.48,3.05-.78.17-.62,1.17-1.01,1.72" fill="none" stroke="#000" stroke-linecap="round" stroke-linejoin="round" stroke-width="2"/><path d="m199.99,362.76c-2.73-2.2-5.92-2.81-9.22-2.16-1.4.27-2.45-.29-3.47-.69-.97-.38-.83-1.63-.3-2.65,1.06-2.04,2.05-4.12,3.76-5.74" fill="none" stroke="#000" stroke-linecap="round" stroke-linejoin="round" stroke-width="2"/><path d="m285.65,312.56c-2.91.42-5.83.85-8.74,1.24-1.07.14-2.16.18-3.25.26" fill="none" stroke="#000" stroke-linecap="round" stroke-linejoin="round" stroke-width="2"/><path d="m230.21,449.41c-2.97,1.59-5.73,3.49-7.97,6.01-1.41,1.6-2.75,3.36-1.52,5.72" fill="none" stroke="#000" stroke-linecap="round" stroke-linejoin="round" stroke-width="2"/><path d="m205.98,324.3c-.58.25-1.22.42-1.74.76-1.7,1.11-1.65,2.35-.02,3.74,3.91,3.32,8.41,6.1,10.95,10.75,1.51,2.77,4.11,5.02,4.29,8.47" fill="none" stroke="#000" stroke-linecap="round" stroke-linejoin="round" stroke-width="2"/><path d="m137.05,390.23c1.76.66,1.49,2.42,1.99,3.75.55,1.48,1.01,2.99,1.51,4.49" fill="none" stroke="#000" stroke-linecap="round" stroke-linejoin="round" stroke-width="2"/><path d="m251.68,448.91c-2.82.8-5.85.67-8.52,2.2-.74.42-1.51.62-1.72,1.55" fill="none" stroke="#000" stroke-linecap="round" stroke-linejoin="round" stroke-width="2"/><path d="m417.52,276.85c2.14,1.4,3.45,3.58,4.96,5.52,1.84,2.36,4.39,3.31,7.03,4.22" fill="none" stroke="#000" stroke-linecap="round" stroke-linejoin="round" stroke-width="2"/><path d="m249.69,449.91c-1.39,2.2-3.96,2.24-5.99,3.25-.5.25-1,.5-1.5.75" fill="none" stroke="#000" stroke-linecap="round" stroke-linejoin="round" stroke-width="2"/><path d="m153.53,375.5c-.08.33-.34.86-.22.97,2.25,2.09,1.97,4.5.97,7.02" fill="none" stroke="#000" stroke-linecap="round" stroke-linejoin="round" stroke-width="2"/><path d="m421.51,270.11c-.25-.08-.51-.14-.75-.25-3.05-1.4-4.71-.54-5.25,2.75" fill="none" stroke="#000" stroke-linecap="round" stroke-linejoin="round" stroke-width="2"/><path d="m179.26,353.52c.33.37,1.13.36,1,1.12-.61,3.39,2.04,4.82,4.02,6.6.84.76,1.82,1.32,1.73,2.65" fill="none" stroke="#000" stroke-linecap="round" stroke-linejoin="round" stroke-width="2"/><path d="m135.8,400.47c-1.08-.08-2.17-.12-3.25-.26-1.83-.24-3.08.34-3.5,2.26" fill="none" stroke="#000" stroke-linecap="round" stroke-linejoin="round" stroke-width="2"/><path d="m305.13,483.88c2.37.79,4.9-.74,7.24.5" fill="none" stroke="#000" stroke-linecap="round" stroke-linejoin="round" stroke-width="2"/><path d="m226.21,484.87c.41-.4.67-.23.74.25.34,2.32.39,4.65.26,6.99" fill="none" stroke="#000" stroke-linecap="round" stroke-linejoin="round" stroke-width="2"/><path d="m354.33,475.63c-2.27-.29-4.33.3-6.24,1.5" fill="none" stroke="#000" stroke-linecap="round" stroke-linejoin="round" stroke-width="2"/><path d="m141.05,399.34c.83,1.62.98,3.42.65,5.1-.17.87.41,1.33.35,2.02" fill="none" stroke="#000" stroke-linecap="round" stroke-linejoin="round" stroke-width="2"/><path d="m225.71,485.12c-1.63,1.58-1.36,3.82-2,5.74" fill="none" stroke="#000" stroke-linecap="round" stroke-linejoin="round" stroke-width="2"/><path d="m230.21,471.51c1.41,1.15.76,2.97,1.41,4.41.28.64-.87,1-1.65.95-.83-.05-1.67-.16-2.5-.24" fill="none" stroke="#000" stroke-linecap="round" stroke-linejoin="round" stroke-width="2"/><path d="m324.11,474.39c.75,2.58,1.5,5.16,2.25,7.74" fill="none" stroke="#000" stroke-linecap="round" stroke-linejoin="round" stroke-width="2"/><path d="m255.18,308.07c.63,1.54,1.57,2.98,1.5,4.74" fill="none" stroke="#000" stroke-linecap="round" stroke-linejoin="round" stroke-width="2"/><path d="m232.2,468.39c3.24-.33,6.06.36,7.99,3.25" fill="none" stroke="#000" stroke-linecap="round" stroke-linejoin="round" stroke-width="2"/><path d="m229.46,472.14c-1.34.89-1.66,2.4-2.25,3.75" fill="none" stroke="#000" stroke-linecap="round" stroke-linejoin="round" stroke-width="2"/><path d="m182.75,355.27c1.19.89,1.79,2.52,3.5,2.75" fill="none" stroke="#000" stroke-linecap="round" stroke-linejoin="round" stroke-width="2"/><path d="m235.83,485.12c-1.6.59-2.89,1.45-3.39,3.24-.53,1.9-2.27,2.87-3.48,4.25" fill="none" stroke="#000" stroke-linecap="round" stroke-linejoin="round" stroke-width="2"/><path d="m369.82,307.07c1.24,1.52,1.22,3.22.75,4.99" fill="none" stroke="#000" stroke-linecap="round" stroke-linejoin="round" stroke-width="2"/><path d="m359.83,283.35c.58.75,1.17,1.5,1.75,2.25" fill="none" stroke="#000" stroke-linecap="round" stroke-linejoin="round" stroke-width="2"/><path d="m367.32,479.63c-.92-.33-1.83-.67-2.75-1" fill="none" stroke="#000" stroke-linecap="round" stroke-linejoin="round" stroke-width="2"/><path d="m241.44,476.13c.69.63-.19,1.62.5,2.25" fill="none" stroke="#000" stroke-linecap="round" stroke-linejoin="round" stroke-width="2"/><path d="m241.44,272.86c-.41.25-.2.66-.25,1" fill="none" stroke="#000" stroke-linecap="round" stroke-linejoin="round" stroke-width="2"/></g></svg>