<?xml version="1.0" encoding="utf-8"?>
<!-- Generator: Adobe Illustrator 27.9.0, SVG Export Plug-In . SVG Version: 6.00 Build 0)  -->
<svg version="1.1" id="Layer_1" xmlns="http://www.w3.org/2000/svg" xmlns:xlink="http://www.w3.org/1999/xlink" x="0px" y="0px"
	 viewBox="0 0 1920 1080" style="enable-background:new 0 0 1920 1080;" xml:space="preserve">
<style type="text/css">
	.st0{fill:#FFF5B5;}
	.st1{fill:#DF8FBD;stroke:#000000;stroke-width:6;stroke-miterlimit:10;}
	.st2{fill:#F79840;stroke:#000000;stroke-miterlimit:10;}
	.st3{clip-path:url(#SVGID_00000018943085259626335250000018398983922704999827_);}
	.st4{clip-path:url(#SVGID_00000105418014629857833500000013762289065811919768_);}
	.st5{fill:#F79840;}
	.st6{fill:none;stroke:#000000;stroke-width:1.32;stroke-miterlimit:10;}
	.st7{clip-path:url(#SVGID_00000074412246577376500230000005361776957017267872_);}
	.st8{clip-path:url(#SVGID_00000053539266443593553100000008701884971261983932_);}
	.st9{fill:#FFFFFF;}
	.st10{clip-path:url(#SVGID_00000153678312665711788510000007101877257668944783_);}
	.st11{clip-path:url(#SVGID_00000025418478746036211250000003615720536290504331_);}
	.st12{fill:#E4BBB7;}
	.st13{fill:none;stroke:#000000;stroke-width:4;stroke-miterlimit:10;}
	.st14{clip-path:url(#SVGID_00000163774689285558801020000001247578364015582910_);}
	.st15{clip-path:url(#SVGID_00000074417460383688949000000007399312132994954413_);}
	.st16{fill:#FDD4CE;}
	.st17{fill:none;stroke:#000000;stroke-width:0.96;stroke-miterlimit:10;}
	.st18{opacity:0.5;fill:#FFFFFF;enable-background:new    ;}
	.st19{fill:#E4BBB7;stroke:#000000;stroke-miterlimit:10;}
	.st20{opacity:0.51;fill:#FFFFFF;enable-background:new    ;}
	.st21{fill:#FFFFFF;stroke:#000000;stroke-width:6;stroke-miterlimit:10;}
	.st22{fill:#DF8FBD;}
	.st23{font-family:'Billo';}
	.st24{font-size:72px;}
	.st25{fill:none;stroke:#000000;stroke-miterlimit:10;}
	.st26{font-size:90px;}
</style>
<rect class="st0" width="1920" height="1080"/>
<path d="M1919,1v1078H1V1H1919 M1920,0H0v1080h1920V0L1920,0z"/>
<path class="st1" d="M1171.5,720.2h561.7c45.4,0,82.1,35.4,82.1,79.1V931c0,43.7-36.8,79.1-82.1,79.1h-561.7
	c-45.4,0-82.1-35.4-82.1-79.1V799.3C1089.4,755.6,1126.1,720.2,1171.5,720.2z"/>
<path class="st2" d="M499,800.9c10.5-0.1,26.4-1.6,43.7-9.3c10.2-4.5,18.8-10.3,26-16.4c17.4-14.8,27.8-36,31-58.7
	c2.5-17.6,10.2-31,21.7-35.6c3-1.2,7-2.1,12.2-1.7c4.7-0.1,16.6,0.5,27.3,8.6c12.5,9.6,18.7,26,16.7,43.1c-0.2,1.8-0.4,3.6-0.5,5.4
	c-0.6,13.4-3.7,24.1-7.5,32.5C647.3,818.1,576,843.6,491,837c0.1-0.3,0.1-0.5,0.2-0.8"/>
<path class="st2" d="M182.7,633.7c0,0,143.3,51,297.1,0c0,0,151.9,279.2-46.2,318.9c0,0-232.1,15.1-275.5-20.8
	C158.2,931.8,73.3,858.2,182.7,633.7L182.7,633.7L182.7,633.7z"/>
<path class="st2" d="M458.1,243.2c-9.3-6.9-10.6-20.8-3-30.8c15.8-20.4,40.6-46.9,76.3-68.8c32.5-19.9,63-29.2,85.7-33.8
	c12.1-2.4,22.8,6.5,23.1,19.2c0.7,31.3-3.8,82.1-34.8,132.2c-11,17.7-23.1,31.9-34.5,43c-7.5,7.3-18.5,8.5-26.4,2.7L458.1,243.2
	L458.1,243.2L458.1,243.2z"/>
<path class="st2" d="M103.1,325.3c-9.2,7-23.1,4.3-30.5-5.9c-15.4-21-34.1-52.5-45.4-93.2c-10.2-37-10.9-69.1-9-92.3
	c1-12.4,12.5-20.2,24.9-16.8c30.4,8.2,78.3,27.1,118.1,71.3c14.1,15.7,24.4,31.4,32,45.5c5,9.3,3.1,20.3-4.6,26.2L103.1,325.3
	L103.1,325.3L103.1,325.3z"/>
<g id="hovedet">
	<g>
		<g>
			<defs>
				<rect id="SVGID_1_" x="19.1" y="186.5" width="625.1" height="479.5"/>
			</defs>
			<clipPath id="SVGID_00000106123131406837356820000017155636035732788910_">
				<use xlink:href="#SVGID_1_"  style="overflow:visible;"/>
			</clipPath>
			<g style="clip-path:url(#SVGID_00000106123131406837356820000017155636035732788910_);">
				<g>
					<g>
						<defs>
							<rect id="SVGID_00000016775864125750040470000007176893362817703818_" x="19.1" y="186.5" width="625.1" height="479.5"/>
						</defs>
						<clipPath id="SVGID_00000051367974964493817800000002218151630042965651_">
							<use xlink:href="#SVGID_00000016775864125750040470000007176893362817703818_"  style="overflow:visible;"/>
						</clipPath>
						<g style="clip-path:url(#SVGID_00000051367974964493817800000002218151630042965651_);">
							<path class="st5" d="M160.3,638.1c0,0,153.4,54.5,342.4-2.5c32.7-9.8,62.7-27.6,85.8-52.7c7.5-8.2,14.9-17.5,21.6-28.3
								c25-39.9,30-80.6,29.5-109.3c-0.4-21.2-4.6-42.2-11.8-62.1c-8.9-24.7-24-56.2-50.1-87.1c-47-55.6-103.2-78.4-130.8-87.3
								c-2.3-0.8-4.6-1.5-6.9-2.4c-15.3-5.7-93.5-30.9-209.3-2c-8.6,2.2-17.1,4.9-25.4,8.3c-21.7,8.8-47.6,22.1-73.9,42.5
								c-42.6,33-69.1,71.4-85.2,101.7c-13.4,25.1-21.3,52.8-22.6,81.2c-1.7,35.8,4.1,85.4,37.7,130.3
								C95.7,614.5,141.4,632,160.3,638.1"/>
							<path class="st6" d="M160.3,638.1c0,0,153.4,54.5,342.4-2.5c32.7-9.8,62.7-27.6,85.8-52.7c7.5-8.2,14.9-17.5,21.6-28.3
								c25-39.9,30-80.6,29.5-109.3c-0.4-21.2-4.6-42.2-11.8-62.1c-8.9-24.7-24-56.2-50.1-87.1c-47-55.6-103.2-78.4-130.8-87.3
								c-2.3-0.8-4.6-1.5-6.9-2.4c-15.3-5.7-93.5-30.9-209.3-2c-8.6,2.2-17.1,4.9-25.4,8.3c-21.7,8.8-47.6,22.1-73.9,42.5
								c-42.6,33-69.1,71.4-85.2,101.7c-13.4,25.1-21.3,52.8-22.6,81.2c-1.7,35.8,4.1,85.4,37.7,130.3
								C95.7,614.5,141.4,632,160.3,638.1L160.3,638.1L160.3,638.1z"/>
						</g>
					</g>
				</g>
			</g>
		</g>
	</g>
</g>
<g id="_øjne">
	<g>
		<g>
			<defs>
				<rect id="SVGID_00000085229871259024865610000011040291887760358530_" x="114.1" y="394.2" width="141.3" height="140.2"/>
			</defs>
			<clipPath id="SVGID_00000038384753497198808990000008899797675525926837_">
				<use xlink:href="#SVGID_00000085229871259024865610000011040291887760358530_"  style="overflow:visible;"/>
			</clipPath>
			<g style="clip-path:url(#SVGID_00000038384753497198808990000008899797675525926837_);">
				<g>
					<g>
						<defs>
							<rect id="SVGID_00000023271014302574925350000008361358739331035039_" x="114.1" y="394.2" width="141.3" height="140.2"/>
						</defs>
						<clipPath id="SVGID_00000023257757308627722720000003463805759867981739_">
							<use xlink:href="#SVGID_00000023271014302574925350000008361358739331035039_"  style="overflow:visible;"/>
						</clipPath>
						<g style="clip-path:url(#SVGID_00000023257757308627722720000003463805759867981739_);">
							<path d="M120.8,452.4c9.7-59.9,90.3-71.4,119.9-18.4c7.2,13,10.2,27.8,7.7,41.9c-2.6,14.3-10.7,27.4-22.4,37.2
								c-27.1,22.7-68,20.1-90.5-7.3c-10.6-12.9-16.5-29.5-15.5-46.7C120.2,456.9,120.4,454.6,120.8,452.4"/>
							<path class="st9" d="M225.4,447.7c0,11.1-9,20.2-20.2,20.2s-20.2-9-20.2-20.2c0-11.1,9-20.2,20.2-20.2
								S225.4,436.6,225.4,447.7"/>
							<path class="st9" d="M163.7,494c0,5.2-4.2,9.5-9.5,9.5c-5.2,0-9.5-4.2-9.5-9.5s4.2-9.5,9.5-9.5S163.7,488.8,163.7,494"/>
						</g>
					</g>
				</g>
			</g>
		</g>
	</g>
</g>
<g id="_øjne-2">
	<g>
		<g>
			<defs>
				<rect id="SVGID_00000030464926204644771690000006262362552132504987_" x="428.6" y="394.2" width="141.3" height="140.2"/>
			</defs>
			<clipPath id="SVGID_00000047051884722907213620000018320006312914069654_">
				<use xlink:href="#SVGID_00000030464926204644771690000006262362552132504987_"  style="overflow:visible;"/>
			</clipPath>
			<g style="clip-path:url(#SVGID_00000047051884722907213620000018320006312914069654_);">
				<g>
					<g>
						<defs>
							<rect id="SVGID_00000087385062759213283250000000413353653884935566_" x="428.6" y="394.2" width="141.3" height="140.2"/>
						</defs>
						<clipPath id="SVGID_00000046311415363678976830000009181106887922249648_">
							<use xlink:href="#SVGID_00000087385062759213283250000000413353653884935566_"  style="overflow:visible;"/>
						</clipPath>
						<g style="clip-path:url(#SVGID_00000046311415363678976830000009181106887922249648_);">
							<path d="M435.4,452.4c9.7-59.9,90.3-71.4,119.9-18.4c7.2,13,10.2,27.8,7.7,41.9c-2.6,14.3-10.7,27.4-22.4,37.2
								c-27.1,22.7-68,20.1-90.5-7.3c-10.6-12.9-16.5-29.5-15.5-46.7C434.8,456.9,435,454.6,435.4,452.4"/>
							<path class="st9" d="M540,447.7c0,11.1-9,20.2-20.2,20.2c-11.1,0-20.2-9-20.2-20.2c0-11.1,9-20.2,20.2-20.2
								S540,436.6,540,447.7"/>
							<path class="st9" d="M478.3,494c0,5.2-4.2,9.5-9.5,9.5s-9.5-4.2-9.5-9.5s4.2-9.5,9.5-9.5S478.3,488.8,478.3,494"/>
						</g>
					</g>
				</g>
			</g>
		</g>
	</g>
</g>
<path class="st12" d="M82.2,280.1l75.3-58.8c0,0-56.6-61.5-105-56.8C52.5,164.5,36.9,222.2,82.2,280.1L82.2,280.1L82.2,280.1z"/>
<path class="st13" d="M276.7,573.7c9,16.1,26.6,24.1,42.1,20c16-4.2,22.7-19.5,23.6-21.6"/>
<path class="st13" d="M342.5,572.7c9,16.1,26.6,24.1,42.1,20c16-4.2,22.7-19.5,23.6-21.6"/>
<path class="st12" d="M498.6,212.5l76.1,57.7c0,0,54.7-83.3,40.8-132.8C615.5,137.4,551.6,142.6,498.6,212.5L498.6,212.5z"/>
<g id="næse">
	<g>
		<g>
			<defs>
				<rect id="SVGID_00000167369771454845100820000008360808259703672463_" x="315.6" y="543.9" width="55" height="37.8"/>
			</defs>
			<clipPath id="SVGID_00000065054111532131156700000000121332161579192762_">
				<use xlink:href="#SVGID_00000167369771454845100820000008360808259703672463_"  style="overflow:visible;"/>
			</clipPath>
			<g style="clip-path:url(#SVGID_00000065054111532131156700000000121332161579192762_);">
				<g>
					<g>
						<defs>
							<rect id="SVGID_00000092428372207021700300000006079613422519157407_" x="315.6" y="543.9" width="55" height="37.8"/>
						</defs>
						<clipPath id="SVGID_00000032647056689783201160000002724767433047616899_">
							<use xlink:href="#SVGID_00000092428372207021700300000006079613422519157407_"  style="overflow:visible;"/>
						</clipPath>
						<g style="clip-path:url(#SVGID_00000032647056689783201160000002724767433047616899_);">
							<path class="st16" d="M343.2,556c2.3-5.3,7.4-8.5,12.5-8.1c5.8,0.4,10.1,5.4,10.7,9.6c1.1,7.1-7.6,16.2-22.8,20.1
								c-2.4-0.3-5.7-1-9.4-2.6c-4.1-1.8-14.4-6.3-14.6-14c-0.1-5.4,5-11.4,10.3-12c0.2,0,0.8-0.1,1.8,0
								C337.3,549.4,341.3,553.7,343.2,556"/>
							<path class="st17" d="M343.2,556c2.3-5.3,7.4-8.5,12.5-8.1c5.8,0.4,10.1,5.4,10.7,9.6c1.1,7.1-7.6,16.2-22.8,20.1
								c-2.4-0.3-5.7-1-9.4-2.6c-4.1-1.8-14.4-6.3-14.6-14c-0.1-5.4,5-11.4,10.3-12c0.2,0,0.8-0.1,1.8,0
								C337.3,549.4,341.3,553.7,343.2,556L343.2,556L343.2,556z"/>
						</g>
					</g>
				</g>
			</g>
		</g>
	</g>
</g>
<ellipse class="st18" cx="184.3" cy="562.7" rx="38.2" ry="10.2"/>
<ellipse class="st18" cx="520.7" cy="562.4" rx="38.2" ry="10.2"/>
<path class="st19" d="M213.5,211.6c6.3,6.5,12.7,12.9,19,19.3c0.8,0.8,2.2,0.4,2.5-0.7c2.3-9.3,4.7-18.6,7-27.9"/>
<path class="st19" d="M254.2,199.9c5.4,7.3,10.7,14.6,16.1,21.8c0.7,0.9,2.1,0.7,2.5-0.3c3.6-8.9,7.2-17.8,10.8-26.6"/>
<path class="st19" d="M297.3,192.1c4.6,7.8,9.1,15.6,13.7,23.4c0.6,1,2,1,2.5-0.1c4.5-8.5,9-16.9,13.5-25.4"/>
<path class="st19" d="M344,190.6c3.6,8.3,7.2,16.6,10.9,24.8c0.5,1,1.9,1.2,2.5,0.3c5.5-7.9,11-15.7,16.4-23.6"/>
<path class="st19" d="M387.7,193.9c2.4,8.7,4.7,17.4,7.1,26.1c0.3,1.1,1.7,1.4,2.5,0.6c6.6-7,13.1-14,19.7-20.9"/>
<path class="st2" d="M207.1,924.3c0,0-5.1,78,55.4,77.4c0,0,44.3,8.1,43.8-79"/>
<path class="st2" d="M337.8,924.9c0,0-9.1,77.6,51.3,80.1c0,0,43.9,10.4,47.8-76.7"/>
<path class="st20" d="M566.3,782.5c0,0,9.7,19.7,10.2,47.5c0,0-0.9,5.9-2.8,5.3C573.7,835.3,566.9,779.7,566.3,782.5L566.3,782.5
	L566.3,782.5z"/>
<path class="st20" d="M571.4,773.3c0,0,10.5,21,12.4,51.2c0,0-0.6,6.4-2.5,5.8C581.2,830.3,571.9,770.3,571.4,773.3L571.4,773.3z"/>
<path class="st20" d="M577.6,763.9c0,0,11.3,22.6,14.1,55.2c0,0-0.4,7-2.3,6.3C589.4,825.5,578,760.7,577.6,763.9L577.6,763.9z"/>
<path class="st19" d="M146.7,720.2c13-1.4,25.9-2.8,38.9-4.1c1.6-0.2,2.4-2.1,1.4-3.4c-8.4-11-16.9-21.9-25.3-32.9"/>
<path class="st19" d="M135.3,762.9c12.6-2.7,25.2-5.5,37.9-8.2c1.6-0.3,2.2-2.3,1.1-3.5c-9.2-9.9-18.4-19.8-27.7-29.8"/>
<path class="st19" d="M128.2,807c12.2-4.2,24.4-8.4,36.6-12.6c1.5-0.5,1.9-2.5,0.7-3.6c-10.3-8.8-20.7-17.5-31-26.3"/>
<path class="st19" d="M495.1,666.9c-8.6,9.8-17.2,19.6-25.8,29.4c-1.1,1.2-0.4,3.2,1.2,3.5c13.6,2.4,27.3,4.7,40.9,7.1"/>
<path class="st19" d="M511.3,706.5c-8.9,9.1-17.7,18.3-26.6,27.4c-1.1,1.2-0.6,3.1,0.9,3.5c12.7,3.3,25.3,6.7,38,10"/>
<path class="st19" d="M524,747.2c-9.2,8.5-18.3,17.1-27.5,25.6c-1.2,1.1-0.8,3.1,0.6,3.6c11.9,4.1,23.7,8.3,35.6,12.4"/>
<path class="st20" d="M224,951c-8.5,4.5-11.6,15.3-6.9,23.6c3.8,6.7,9.8,14.2,19.1,19.7c4.3,2.5,18.8,11.1,35.1,6.1
	c10.2-3.1,16.5-10.1,18.3-12.2c5.5-6.3,7.8-12.8,9.1-16.9c0-0.1,0-0.1,0.1-0.2c2.9-8.8-1.9-18.3-10.6-21.5
	C273.1,944.1,247.6,938.5,224,951L224,951L224,951z"/>
<path class="st20" d="M354.3,954.5c-8.5,4.5-11.6,15.3-6.9,23.6c3.8,6.7,9.8,14.2,19.1,19.7c4.3,2.5,18.8,11.1,35.1,6.1
	c10.2-3.1,16.5-10.1,18.3-12.2c5.5-6.3,7.8-12.8,9.1-16.9c0-0.1,0-0.1,0.1-0.2c2.9-8.8-1.9-18.3-10.6-21.5
	C403.4,947.5,377.9,942,354.3,954.5L354.3,954.5z"/>
<path class="st21" d="M1191.5,779.1h521.7c45.8,0,82.9,24.6,82.9,55v47c0,30.4-37.1,55-82.9,55h-521.7c-45.8,0-82.9-24.6-82.9-55
	v-47C1108.6,803.7,1145.7,779.1,1191.5,779.1z"/>
<text transform="matrix(1 0 0 1 713.7214 391.4233)" class="st22 st23 st24">Level complete, yay!</text>
<text transform="matrix(1 0 0 1 713.7214 391.4233)" class="st25 st23 st24">Level complete, yay!</text>
<text transform="matrix(1 0 0 1 713.7214 477.8233)" class="st22 st23 st24">Wanna give me some more snacks?</text>
<text transform="matrix(1 0 0 1 713.7214 477.8233)" class="st25 st23 st24">Wanna give me some more snacks?</text>
<text transform="matrix(1 0 0 1 1249.9908 890.912)" class="st22 st23 st26">Click here!</text>
<text transform="matrix(1 0 0 1 1249.9908 890.912)" class="st25 st23 st26">Click here!</text>
</svg>
